<mxGraphModel arrows="1" connect="1" dx="1024" dy="592" fold="1" grid="1" gridSize="10" guides="1" math="0" page="1" pageHeight="1169" pageScale="1" pageWidth="827" shadow="0" tooltips="1"><root><mxCell id="WIyWlLk6GJQsqaUBKTNV-0"/><mxCell id="WIyWlLk6GJQsqaUBKTNV-1" parent="WIyWlLk6GJQsqaUBKTNV-0"/><mxCell id="WIyWlLk6GJQsqaUBKTNV-2" value="01_p1_Main_GH_to_SL" style="rounded=1;whiteSpace=wrap;html=1;fontSize=12;glass=0;strokeWidth=1;shadow=0;" parent="WIyWlLk6GJQsqaUBKTNV-1" vertex="1"><mxGeometry x="1250" y="100" width="120" height="40" as="geometry"/></mxCell><mxCell id="WIyWlLk6GJQsqaUBKTNV-21" value="02_p7_DeleteTargetAssets" style="rounded=1;whiteSpace=wrap;html=1;fontSize=12;glass=0;strokeWidth=1;shadow=0;" parent="WIyWlLk6GJQsqaUBKTNV-1" vertex="1"><mxGeometry x="138.8888888888888888888888888888889" y="200" width="120" height="40" as="geometry"/></mxCell><mxCell id="8sIUwhSZAv_JCLybafT7-2" style="edgeStyle=orthogonalEdgeStyle;rounded=0;orthogonalLoop=1;jettySize=auto;html=1;entryX=0.5;entryY=0;entryDx=0;entryDy=0;" edge="1" parent="WIyWlLk6GJQsqaUBKTNV-1" source="WIyWlLk6GJQsqaUBKTNV-2" target="WIyWlLk6GJQsqaUBKTNV-21"><mxGeometry relative="1" as="geometry"/></mxCell><mxCell id="WIyWlLk6GJQsqaUBKTNV-22" value="02_p1_GH_Get_Last_Commits" style="rounded=1;whiteSpace=wrap;html=1;fontSize=12;glass=0;strokeWidth=1;shadow=0;" parent="WIyWlLk6GJQsqaUBKTNV-1" vertex="1"><mxGeometry x="416.6666666666666666666666666666667" y="200" width="120" height="40" as="geometry"/></mxCell><mxCell id="8sIUwhSZAv_JCLybafT7-3" style="edgeStyle=orthogonalEdgeStyle;rounded=0;orthogonalLoop=1;jettySize=auto;html=1;entryX=0.5;entryY=0;entryDx=0;entryDy=0;" edge="1" parent="WIyWlLk6GJQsqaUBKTNV-1" source="WIyWlLk6GJQsqaUBKTNV-2" target="WIyWlLk6GJQsqaUBKTNV-22"><mxGeometry relative="1" as="geometry"/></mxCell><mxCell id="WIyWlLk6GJQsqaUBKTNV-23" value="02_p1_Update_CICD_TimeStamp" style="rounded=1;whiteSpace=wrap;html=1;fontSize=12;glass=0;strokeWidth=1;shadow=0;" parent="WIyWlLk6GJQsqaUBKTNV-1" vertex="1"><mxGeometry x="694.4444444444444444444444444444445" y="200" width="120" height="40" as="geometry"/></mxCell><mxCell id="8sIUwhSZAv_JCLybafT7-4" style="edgeStyle=orthogonalEdgeStyle;rounded=0;orthogonalLoop=1;jettySize=auto;html=1;entryX=0.5;entryY=0;entryDx=0;entryDy=0;" edge="1" parent="WIyWlLk6GJQsqaUBKTNV-1" source="WIyWlLk6GJQsqaUBKTNV-2" target="WIyWlLk6GJQsqaUBKTNV-23"><mxGeometry relative="1" as="geometry"/></mxCell><mxCell id="WIyWlLk6GJQsqaUBKTNV-24" value="02_p3_GH_Task" style="rounded=1;whiteSpace=wrap;html=1;fontSize=12;glass=0;strokeWidth=1;shadow=0;" parent="WIyWlLk6GJQsqaUBKTNV-1" vertex="1"><mxGeometry x="972.2222222222222222222222222222222" y="200" width="120" height="40" as="geometry"/></mxCell><mxCell id="8sIUwhSZAv_JCLybafT7-5" style="edgeStyle=orthogonalEdgeStyle;rounded=0;orthogonalLoop=1;jettySize=auto;html=1;entryX=0.5;entryY=0;entryDx=0;entryDy=0;" edge="1" parent="WIyWlLk6GJQsqaUBKTNV-1" source="WIyWlLk6GJQsqaUBKTNV-2" target="WIyWlLk6GJQsqaUBKTNV-24"><mxGeometry relative="1" as="geometry"/></mxCell><mxCell id="WIyWlLk6GJQsqaUBKTNV-25" value="02_p5_Delete_Temp_Project" style="rounded=1;whiteSpace=wrap;html=1;fontSize=12;glass=0;strokeWidth=1;shadow=0;" parent="WIyWlLk6GJQsqaUBKTNV-1" vertex="1"><mxGeometry x="1250.000000000000000000000000000000" y="200" width="120" height="40" as="geometry"/></mxCell><mxCell id="8sIUwhSZAv_JCLybafT7-6" style="edgeStyle=orthogonalEdgeStyle;rounded=0;orthogonalLoop=1;jettySize=auto;html=1;entryX=0.5;entryY=0;entryDx=0;entryDy=0;" edge="1" parent="WIyWlLk6GJQsqaUBKTNV-1" source="WIyWlLk6GJQsqaUBKTNV-2" target="WIyWlLk6GJQsqaUBKTNV-25"><mxGeometry relative="1" as="geometry"/></mxCell><mxCell id="WIyWlLk6GJQsqaUBKTNV-26" value="02_p1_GH_Pipeline" style="rounded=1;whiteSpace=wrap;html=1;fontSize=12;glass=0;strokeWidth=1;shadow=0;" parent="WIyWlLk6GJQsqaUBKTNV-1" vertex="1"><mxGeometry x="1527.777777777777777777777777777778" y="200" width="120" height="40" as="geometry"/></mxCell><mxCell id="8sIUwhSZAv_JCLybafT7-7" style="edgeStyle=orthogonalEdgeStyle;rounded=0;orthogonalLoop=1;jettySize=auto;html=1;entryX=0.5;entryY=0;entryDx=0;entryDy=0;" edge="1" parent="WIyWlLk6GJQsqaUBKTNV-1" source="WIyWlLk6GJQsqaUBKTNV-2" target="WIyWlLk6GJQsqaUBKTNV-26"><mxGeometry relative="1" as="geometry"/></mxCell><mxCell id="WIyWlLk6GJQsqaUBKTNV-261" value="03_p1_GH_Pipeline_Create" style="rounded=1;whiteSpace=wrap;html=1;fontSize=12;glass=0;strokeWidth=1;shadow=0;" parent="WIyWlLk6GJQsqaUBKTNV-1" vertex="1"><mxGeometry x="1527.777777777777777777777777777778" y="300" width="120" height="40" as="geometry"/></mxCell><mxCell id="8sIUwhSZAv_JCLybafT7-8" style="edgeStyle=orthogonalEdgeStyle;rounded=0;orthogonalLoop=1;jettySize=auto;html=1;entryX=0.5;entryY=0;entryDx=0;entryDy=0;" edge="1" parent="WIyWlLk6GJQsqaUBKTNV-1" source="WIyWlLk6GJQsqaUBKTNV-26" target="WIyWlLk6GJQsqaUBKTNV-261"><mxGeometry relative="1" as="geometry"/></mxCell><mxCell id="WIyWlLk6GJQsqaUBKTNV-27" value="02_p4_GH_File" style="rounded=1;whiteSpace=wrap;html=1;fontSize=12;glass=0;strokeWidth=1;shadow=0;" parent="WIyWlLk6GJQsqaUBKTNV-1" vertex="1"><mxGeometry x="1805.555555555555555555555555555556" y="200" width="120" height="40" as="geometry"/></mxCell><mxCell id="8sIUwhSZAv_JCLybafT7-9" style="edgeStyle=orthogonalEdgeStyle;rounded=0;orthogonalLoop=1;jettySize=auto;html=1;entryX=0.5;entryY=0;entryDx=0;entryDy=0;" edge="1" parent="WIyWlLk6GJQsqaUBKTNV-1" source="WIyWlLk6GJQsqaUBKTNV-2" target="WIyWlLk6GJQsqaUBKTNV-27"><mxGeometry relative="1" as="geometry"/></mxCell><mxCell id="WIyWlLk6GJQsqaUBKTNV-271" value="03_p4_GH_File_Create" style="rounded=1;whiteSpace=wrap;html=1;fontSize=12;glass=0;strokeWidth=1;shadow=0;" parent="WIyWlLk6GJQsqaUBKTNV-1" vertex="1"><mxGeometry x="1805.555555555555555555555555555556" y="300" width="120" height="40" as="geometry"/></mxCell><mxCell id="8sIUwhSZAv_JCLybafT7-10" style="edgeStyle=orthogonalEdgeStyle;rounded=0;orthogonalLoop=1;jettySize=auto;html=1;entryX=0.5;entryY=0;entryDx=0;entryDy=0;" edge="1" parent="WIyWlLk6GJQsqaUBKTNV-1" source="WIyWlLk6GJQsqaUBKTNV-27" target="WIyWlLk6GJQsqaUBKTNV-271"><mxGeometry relative="1" as="geometry"/></mxCell><mxCell id="WIyWlLk6GJQsqaUBKTNV-28" value="02_p6_CreateTargetProject" style="rounded=1;whiteSpace=wrap;html=1;fontSize=12;glass=0;strokeWidth=1;shadow=0;" parent="WIyWlLk6GJQsqaUBKTNV-1" vertex="1"><mxGeometry x="2083.333333333333333333333333333333" y="200" width="120" height="40" as="geometry"/></mxCell><mxCell id="8sIUwhSZAv_JCLybafT7-11" style="edgeStyle=orthogonalEdgeStyle;rounded=0;orthogonalLoop=1;jettySize=auto;html=1;entryX=0.5;entryY=0;entryDx=0;entryDy=0;" edge="1" parent="WIyWlLk6GJQsqaUBKTNV-1" source="WIyWlLk6GJQsqaUBKTNV-2" target="WIyWlLk6GJQsqaUBKTNV-28"><mxGeometry relative="1" as="geometry"/></mxCell><mxCell id="WIyWlLk6GJQsqaUBKTNV-29" value="02_p2_GH_Account" style="rounded=1;whiteSpace=wrap;html=1;fontSize=12;glass=0;strokeWidth=1;shadow=0;" parent="WIyWlLk6GJQsqaUBKTNV-1" vertex="1"><mxGeometry x="2361.111111111111111111111111111111" y="200" width="120" height="40" as="geometry"/></mxCell><mxCell id="8sIUwhSZAv_JCLybafT7-12" style="edgeStyle=orthogonalEdgeStyle;rounded=0;orthogonalLoop=1;jettySize=auto;html=1;entryX=0.5;entryY=0;entryDx=0;entryDy=0;" edge="1" parent="WIyWlLk6GJQsqaUBKTNV-1" source="WIyWlLk6GJQsqaUBKTNV-2" target="WIyWlLk6GJQsqaUBKTNV-29"><mxGeometry relative="1" as="geometry"/></mxCell></root></mxGraphModel>